<svg version="1.1" id="Ribbon-Logo-Color-2021" xmlns="http://www.w3.org/2000/svg" xmlns:xlink="http://www.w3.org/1999/xlink"
	 x="0px" y="0px" viewBox="0 0 1222 502" fill="currentColor" style="enable-background:new 0 0 1222 502;" xml:space="preserve">
<style type="text/css">
	.st0{fill:#4B4B4B;}
	.st1{fill:url(#SVGID_1_);}
	.st2{fill:#4E008F;}
	.st3{fill:#9A0072;}
	.st4{fill:#6B1E7D;}
	.st5{fill:#B70071;}
</style>
<g>
	<path class="st0" d="M920.4,309.7c-8.1,0-15.9-1.6-23.3-4.8c-7.1-3.1-13.5-7.4-19-13c-5.5-5.5-9.8-12-12.8-19.2
		c-3.1-7.4-4.7-15.3-4.7-23.5c0-8.1,1.6-16,4.7-23.5c3-7.2,7.3-13.7,12.8-19.2c5.5-5.6,11.9-9.9,19-13c7.4-3.2,15.2-4.8,23.3-4.8
		c8.1,0,15.9,1.6,23.3,4.8c7.1,3.1,13.5,7.4,19,13c5.5,5.5,9.8,12,12.8,19.2c3.1,7.4,4.7,15.3,4.7,23.5c0,8.1-1.6,16-4.7,23.5
		c-3,7.2-7.3,13.7-12.8,19.2c-5.5,5.6-11.9,9.9-19,13C936.3,308.1,928.4,309.7,920.4,309.7z M920.4,208c-10.8,0-21,4.3-28.7,12.1
		c-7.7,7.8-11.9,18.2-11.9,29.3c0,11.1,4.2,21.5,11.9,29.3c7.7,7.8,17.9,12.1,28.7,12.1s21-4.3,28.7-12.1
		c7.7-7.8,11.9-18.2,11.9-29.3c0-11.1-4.2-21.5-11.9-29.3C941.4,212.3,931.2,208,920.4,208z"/>
	<path class="st0" d="M1087.2,307.4l0-63.9c0-9.5-3.7-18.4-10.4-25.1c-6.7-6.7-15.7-10.4-25.3-10.4s-18.5,3.7-25.3,10.4
		c-6.7,6.7-10.4,15.6-10.4,25.1l0,63.9l-19.1,0l0-63.9c0-7.4,1.5-14.5,4.3-21.3c2.8-6.5,6.7-12.4,11.8-17.4c5-5,10.9-8.9,17.4-11.7
		c6.8-2.8,13.9-4.3,21.3-4.3c7.4,0,14.6,1.4,21.3,4.3c6.5,2.7,12.4,6.7,17.4,11.7c5,5,9,10.9,11.8,17.4c2.9,6.7,4.3,13.9,4.3,21.3
		l0,63.9L1087.2,307.4z"/>
	<rect x="549.9" y="191.2" class="st0" width="19.1" height="116.2"/>
	<circle class="st0" cx="559.5" cy="154.9" r="11.4"/>
	<path class="st0" d="M475.5,307.4h-19.1v-62.9c0-7.2,1.4-14.2,4.2-20.8c2.7-6.3,6.5-12,11.4-16.9c4.9-4.9,10.6-8.7,16.9-11.4
		c6.6-2.8,13.6-4.2,20.8-4.2h21.6v19.1h-21.6c-18.9,0-34.2,15.3-34.2,34.2V307.4z"/>
	<path class="st0" d="M704.3,227.4c-3-7.1-7.3-13.4-12.7-18.8c-5.4-5.4-11.8-9.7-18.8-12.7c-7.3-3.1-15.1-4.7-23.1-4.7h-37.3
		c-1.6,0-2.8-1.3-2.8-2.8l0-36.3l-19.1,0l0,36.3c0,12.1,9.8,21.9,21.9,21.9h37.3c10.7,0,20.8,4.2,28.4,11.8
		c7.6,7.6,11.8,17.7,11.8,28.4c0,10.7-4.2,20.8-11.8,28.4c-7.6,7.6-17.7,11.8-28.4,11.8s-20.8-4.2-28.4-11.8
		c-7.4-7.4-11.6-17.2-11.8-27.6v-30.1c-10.5,0-19.1,8.6-19.1,19.1v0.6h0v9.5c0,8,1.6,15.8,4.7,23.1c3,7.1,7.3,13.4,12.7,18.8
		c5.4,5.4,11.8,9.7,18.8,12.7c7.3,3.1,15.1,4.7,23.1,4.7c8,0,15.8-1.6,23.1-4.7c7.1-3,13.4-7.3,18.8-12.7
		c5.4-5.4,9.7-11.8,12.7-18.8c3.1-7.3,4.7-15.1,4.7-23.1C709,242.5,707.4,234.7,704.3,227.4z"/>
	<path class="st0" d="M839.2,227.4c-3-7.1-7.3-13.4-12.7-18.8c-5.4-5.4-11.8-9.7-18.8-12.7c-7.3-3.1-15.1-4.7-23.1-4.7h-37.3
		c-1.6,0-2.8-1.3-2.8-2.8l0-36.3l-19.1,0l0,36.3c0,12.1,9.8,21.9,21.9,21.9h37.3c10.7,0,20.8,4.2,28.4,11.8
		c7.6,7.6,11.8,17.7,11.8,28.4c0,10.7-4.2,20.8-11.8,28.4c-7.6,7.6-17.7,11.8-28.4,11.8s-20.8-4.2-28.4-11.8
		c-7.4-7.4-11.6-17.2-11.8-27.6v-30.1c-10.5,0-19.1,8.6-19.1,19.1v0.6h0v9.5c0,8,1.6,15.8,4.7,23.1c3,7.1,7.3,13.4,12.7,18.8
		c5.4,5.4,11.8,9.7,18.8,12.7c7.3,3.1,15.1,4.7,23.1,4.7s15.8-1.6,23.1-4.7c7.1-3,13.4-7.3,18.8-12.7c5.4-5.4,9.7-11.8,12.7-18.8
		c3.1-7.3,4.7-15.1,4.7-23.1C843.9,242.5,842.3,234.7,839.2,227.4z"/>
</g>
<linearGradient id="SVGID_1_" gradientUnits="userSpaceOnUse" x1="116.0443" y1="250.8195" x2="387.1531" y2="250.8195">
	<stop  offset="0" style="stop-color:#FF007F"/>
	<stop  offset="1" style="stop-color:#7E00B9"/>
</linearGradient>
<path class="st1" d="M387.2,250.8c0-19.1-9.9-36-25-45.7c3.8-17.6-1.1-36.7-14.6-50.2c-13.5-13.5-32.6-18.5-50.2-14.6
	c-9.7-15.1-26.6-25-45.7-25s-36,9.9-45.7,25c-17.6-3.8-36.7,1.1-50.2,14.6c-13.5,13.5-18.5,32.6-14.6,50.2
	c-15.1,9.7-25,26.6-25,45.7c0,19.1,9.9,36,25,45.7c-3.8,17.6,1.1,36.7,14.6,50.2c10.6,10.6,24.5,15.9,38.5,15.9
	c3.9,0,7.9-0.4,11.7-1.3c9.7,15.1,26.6,25,45.7,25c19.1,0,36-9.9,45.7-25c17.6,3.8,36.7-1.1,50.2-14.6
	c13.5-13.5,18.5-32.6,14.6-50.2C377.2,286.8,387.2,269.9,387.2,250.8z M334,168.4c7.9,7.9,11.3,18.8,10.1,29.3c-2.5-0.5-5-0.9-7.5-1
	c-4.6-0.4-8.9-1.3-12.6-2.8c-3.5-1.3-6.6-3.4-9.3-6c-2.7-2.7-4.7-5.8-6-9.3c-1.4-3.8-2.4-8-2.8-12.6c-0.2-2.6-0.5-5.1-1-7.5
	C315.2,157.1,326.1,160.5,334,168.4z M325.6,269.4c2.4,5.4,5.7,10.6,9.9,15.5l0.1,0.1c0.3,0.3,0.6,0.7,0.8,1c-0.4,0-0.8,0.1-1.2,0.1
	l-0.2,0c-6.4,0.5-12.4,1.9-17.9,4c-6,2.3-11.4,5.8-15.9,10.3c-4.6,4.6-8,9.9-10.3,15.9c-2.1,5.5-3.4,11.5-4,17.9l0,0.2
	c0,0.4-0.1,0.8-0.1,1.2c-0.3-0.3-0.7-0.5-1-0.8l-0.1-0.1c-4.9-4.2-10.1-7.5-15.5-9.9c-5.9-2.6-12.1-4-18.6-4s-12.7,1.3-18.6,4
	c-5.4,2.4-10.6,5.7-15.5,9.9l-0.1,0.1c-0.3,0.3-0.7,0.6-1,0.8c0-0.4-0.1-0.8-0.1-1.2l0-0.2c-0.5-6.4-1.9-12.4-4-17.9
	c-2.3-6-5.8-11.4-10.3-15.9l0,0c-4.6-4.6-9.9-8-15.9-10.3c-5.5-2.1-11.5-3.4-17.9-4l-0.2,0c-0.4,0-0.8-0.1-1.2-0.1
	c0.3-0.3,0.5-0.7,0.8-1l0.1-0.1c4.2-4.9,7.5-10.1,9.9-15.5c2.6-5.9,4-12.1,4-18.6c0-6.5-1.3-12.7-4-18.6c-2.4-5.4-5.7-10.6-9.9-15.5
	l-0.1-0.1c-0.3-0.3-0.6-0.7-0.8-1c0.4,0,0.8-0.1,1.2-0.1l0.2,0c6.4-0.5,12.4-1.9,17.9-4c6-2.3,11.4-5.8,15.9-10.3
	c4.6-4.6,8-9.9,10.3-15.9c2.1-5.5,3.4-11.5,4-17.9l0-0.2c0-0.4,0.1-0.8,0.1-1.2c0.3,0.3,0.7,0.5,1,0.8l0.1,0.1
	c4.9,4.2,10.1,7.5,15.5,9.9c5.9,2.6,12.1,4,18.6,4c6.5,0,12.7-1.3,18.6-4c5.4-2.4,10.6-5.7,15.5-9.9l0.1-0.1c0.3-0.3,0.7-0.6,1-0.8
	c0,0.4,0.1,0.8,0.1,1.2l0,0.2c0.5,6.4,1.9,12.4,4,17.9c2.3,6,5.8,11.4,10.3,15.9c4.6,4.6,9.9,8,15.9,10.3c5.5,2.1,11.5,3.4,17.9,4
	l0.2,0c0.4,0,0.8,0.1,1.2,0.1c-0.3,0.3-0.5,0.7-0.8,1l-0.1,0.1c-4.2,4.9-7.5,10.1-9.9,15.5c-2.6,5.9-4,12.1-4,18.6
	C321.7,257.3,323,263.5,325.6,269.4z M251.6,134.2c11.2,0,21.3,5.3,27.8,13.6c-2.1,1.4-4.2,2.9-6.1,4.6c-3.5,3-7.2,5.3-10.9,7
	c-3.4,1.5-7.1,2.3-10.8,2.3c-3.8,0-7.4-0.8-10.8-2.3c-3.7-1.6-7.3-4-10.9-7c-2-1.7-4-3.3-6.1-4.6
	C230.3,139.5,240.4,134.2,251.6,134.2z M169.2,168.4c6.9-6.9,15.9-10.3,25-10.3c1.4,0,2.9,0.1,4.3,0.3c-0.5,2.5-0.9,5-1,7.5
	c-0.4,4.6-1.3,8.9-2.8,12.6c-1.3,3.5-3.4,6.6-6,9.3c-2.7,2.7-5.8,4.7-9.3,6c-3.8,1.4-8,2.4-12.6,2.8c-2.6,0.2-5.1,0.5-7.5,1
	C157.9,187.2,161.3,176.3,169.2,168.4z M135,250.8c0-11.2,5.3-21.3,13.5-27.8c1.4,2.1,2.9,4.2,4.6,6.1c3,3.5,5.3,7.2,7,10.9
	c1.5,3.4,2.3,7.1,2.3,10.8c0,3.8-0.8,7.4-2.3,10.8c-1.6,3.7-4,7.3-7,10.9c-1.7,2-3.3,4-4.6,6.1C140.3,272.1,135,262,135,250.8z
	 M169.2,333.2c-7.9-7.9-11.3-18.8-10.1-29.3c2.5,0.5,5,0.9,7.5,1c4.6,0.4,8.9,1.3,12.6,2.8c3.5,1.3,6.6,3.4,9.3,6
	c2.7,2.7,4.7,5.8,6,9.3c1.4,3.8,2.4,8,2.8,12.6c0.2,2.6,0.5,5.1,1,7.5C188,344.5,177.1,341.2,169.2,333.2z M251.6,367.4
	c-11.2,0-21.3-5.3-27.8-13.5c2.1-1.4,4.2-2.9,6.1-4.6c3.5-3,7.2-5.3,10.9-7c3.4-1.5,7.1-2.3,10.8-2.3c3.8,0,7.4,0.8,10.8,2.3
	c3.7,1.6,7.3,4,10.9,7c2,1.7,4,3.2,6.1,4.6C272.9,362.2,262.8,367.4,251.6,367.4z M334,333.2c-7.9,7.9-18.8,11.3-29.3,10.1
	c0.5-2.5,0.9-5,1-7.5c0.4-4.6,1.3-8.9,2.8-12.6c1.3-3.5,3.4-6.6,6-9.3c2.7-2.7,5.8-4.7,9.3-6c3.8-1.4,8-2.4,12.6-2.8
	c2.6-0.2,5.1-0.5,7.5-1C345.3,314.4,341.9,325.3,334,333.2z M354.7,278.6c-1.4-2.1-2.9-4.2-4.6-6.1c-3-3.5-5.3-7.2-7-10.9
	c-1.5-3.4-2.3-7.1-2.3-10.8c0-3.8,0.8-7.4,2.3-10.8c1.6-3.7,4-7.3,7-10.9c1.7-2,3.3-4,4.6-6.1c8.3,6.5,13.5,16.6,13.5,27.8
	C368.2,262,362.9,272.1,354.7,278.6z"/>
<g>
	<path class="st2" d="M336.4,215.6c6.9,0.7,13.1,3.3,18.2,7.4c3.6-5.6,6.1-11.6,7.5-17.9c-5.4-3.5-11.5-6.1-18.1-7.4
		C343.3,204.1,340.8,210.3,336.4,215.6z"/>
	<path class="st2" d="M336.4,215.6c6.9,0.7,13.1,3.3,18.2,7.4c3.6-5.6,6.1-11.6,7.5-17.9c-5.4-3.5-11.5-6.1-18.1-7.4
		C343.3,204.1,340.8,210.3,336.4,215.6z"/>
	<path class="st3" d="M216.4,335.7c-5.3,4.3-11.5,6.8-18,7.6c1.4,6.5,3.9,12.6,7.4,18.1c6.3-1.4,12.3-3.9,17.9-7.5
		C219.8,348.8,217.1,342.5,216.4,335.7z"/>
	<path class="st3" d="M216.4,335.7c-5.3,4.3-11.5,6.8-18,7.6c1.4,6.5,3.9,12.6,7.4,18.1c6.3-1.4,12.3-3.9,17.9-7.5
		C219.8,348.8,217.1,342.5,216.4,335.7z"/>
	<path class="st4" d="M286.8,335.7c-0.7,6.9-3.3,13.1-7.4,18.2c5.6,3.6,11.6,6.1,17.9,7.5c3.5-5.4,6.1-11.5,7.4-18.1
		C298.3,342.5,292.1,340,286.8,335.7z"/>
	<path class="st4" d="M286.8,335.7c-0.7,6.9-3.3,13.1-7.4,18.2c5.6,3.6,11.6,6.1,17.9,7.5c3.5-5.4,6.1-11.5,7.4-18.1
		C298.3,342.5,292.1,340,286.8,335.7z"/>
	<path class="st2" d="M336.4,286c4.3,5.3,6.8,11.5,7.6,18c6.5-1.4,12.6-3.9,18.1-7.4c-1.4-6.3-3.8-12.3-7.5-17.9
		C349.6,282.7,343.3,285.3,336.4,286z"/>
	<path class="st2" d="M336.4,286c4.3,5.3,6.8,11.5,7.6,18c6.5-1.4,12.6-3.9,18.1-7.4c-1.4-6.3-3.8-12.3-7.5-17.9
		C349.6,282.7,343.3,285.3,336.4,286z"/>
	<path class="st4" d="M286.8,166c5.3-4.3,11.5-6.8,18-7.6c-1.4-6.5-3.9-12.6-7.4-18.1c-6.3,1.4-12.3,3.8-17.9,7.5
		C283.4,152.9,286.1,159.1,286.8,166z"/>
	<path class="st4" d="M286.8,166c5.3-4.3,11.5-6.8,18-7.6c-1.4-6.5-3.9-12.6-7.4-18.1c-6.3,1.4-12.3,3.8-17.9,7.5
		C283.4,152.9,286.1,159.1,286.8,166z"/>
	<path class="st3" d="M216.4,166c0.7-6.9,3.3-13.1,7.4-18.2c-5.6-3.6-11.6-6.1-17.9-7.5c-3.5,5.4-6.1,11.5-7.4,18.1
		C204.9,159.1,211.1,161.7,216.4,166z"/>
	<path class="st3" d="M216.4,166c0.7-6.9,3.3-13.1,7.4-18.2c-5.6-3.6-11.6-6.1-17.9-7.5c-3.5,5.4-6.1,11.5-7.4,18.1
		C204.9,159.1,211.1,161.7,216.4,166z"/>
	<path class="st5" d="M166.8,215.6c-4.3-5.3-6.8-11.5-7.6-18c-6.5,1.4-12.6,3.9-18.1,7.4c1.4,6.3,3.8,12.3,7.5,17.9
		C153.6,219,159.9,216.3,166.8,215.6z"/>
	<path class="st5" d="M166.8,215.6c-4.3-5.3-6.8-11.5-7.6-18c-6.5,1.4-12.6,3.9-18.1,7.4c1.4,6.3,3.8,12.3,7.5,17.9
		C153.6,219,159.9,216.3,166.8,215.6z"/>
	<path class="st5" d="M166.8,286c-6.9-0.7-13.1-3.3-18.2-7.4c-3.6,5.6-6.1,11.6-7.5,17.9c5.4,3.5,11.5,6.1,18.1,7.4
		C159.9,297.6,162.4,291.3,166.8,286z"/>
	<path class="st5" d="M166.8,286c-6.9-0.7-13.1-3.3-18.2-7.4c-3.6,5.6-6.1,11.6-7.5,17.9c5.4,3.5,11.5,6.1,18.1,7.4
		C159.9,297.6,162.4,291.3,166.8,286z"/>
</g>
<g>
	<path class="st0" d="M1129.2,195.5c-0.5,1.2-1.2,2.3-2,3.2s-1.9,1.6-3.1,2.2c-1.2,0.5-2.5,0.8-3.8,0.9c-1.4,0-2.7-0.2-3.9-0.7
		c-1.2-0.5-2.2-1.2-3.1-2c-0.9-0.9-1.6-1.9-2.1-3.1c-0.5-1.2-0.8-2.4-0.8-3.8c0-1.3,0.2-2.6,0.7-3.8c0.5-1.2,1.2-2.3,2-3.2
		c0.9-0.9,1.9-1.6,3.1-2.2s2.5-0.8,3.8-0.9c1.4,0,2.6,0.2,3.8,0.7c1.2,0.5,2.2,1.2,3.1,2c0.9,0.9,1.6,1.9,2.1,3.1
		c0.5,1.2,0.8,2.4,0.8,3.8C1129.9,193,1129.6,194.3,1129.2,195.5z M1128,188.3c-0.5-1-1.1-1.9-1.9-2.7c-0.8-0.8-1.7-1.4-2.8-1.8
		c-1.1-0.4-2.2-0.6-3.4-0.6c-1.2,0-2.4,0.3-3.4,0.8c-1,0.5-1.9,1.1-2.7,1.9c-0.8,0.8-1.3,1.7-1.8,2.8c-0.4,1.1-0.6,2.2-0.6,3.4
		c0,1.2,0.3,2.3,0.7,3.4c0.5,1,1.1,1.9,1.9,2.7c0.8,0.8,1.7,1.4,2.8,1.8c1.1,0.4,2.2,0.6,3.4,0.6c1.2,0,2.4-0.3,3.4-0.8
		c1-0.5,1.9-1.1,2.7-1.9c0.8-0.8,1.3-1.7,1.8-2.8c0.4-1.1,0.6-2.2,0.6-3.4C1128.7,190.5,1128.4,189.4,1128,188.3z M1124.1,191.9
		c-0.4,0.5-0.9,0.9-1.6,1.2l2.6,3.7l-2.7,0.1l-2.3-3.3l-1.8,0l0.1,3.3l-2.3,0l-0.2-10.4l4.6-0.1c1.2,0,2.2,0.3,3,0.8
		c0.8,0.6,1.1,1.4,1.2,2.5C1124.7,190.6,1124.5,191.3,1124.1,191.9z M1121.9,188.8c-0.3-0.2-0.8-0.4-1.4-0.4l-2.2,0l0.1,3l2.3,0
		c0.6,0,1-0.2,1.3-0.4s0.4-0.7,0.4-1.1C1122.4,189.4,1122.2,189.1,1121.9,188.8z"/>
</g>
</svg>
